<?xml version="1.0" standalone="no"?>
<svg version="1.0" xmlns="http://www.w3.org/2000/svg"
    viewBox="0 0 1536 1024"
 preserveAspectRatio="xMidYMid meet">

<g transform="translate(0.000000,1024.000000) scale(0.100000,-0.100000)rivasidad
fill="currentColor" stroke="none" stroke-width="3">

<path id="pantalla_icon" d="M2750 7011 c-49 -15 -89 -41 -114 -74 -58 -76 -56 -36 -56 -1071 0
-1071 -3 -1019 72 -1093 81 -79 -53 -73 1576 -73 1618 0 1514 -4 1586 66 77
75 71 -15 74 1081 3 1070 6 1010 -53 1088 -15 18 -50 45 -78 60 l-51 25 -1465
-1 c-807 0 -1477 -4 -1491 -8z m2888 -227 l22 -14 0 -815 0 -814 -22 -15 c-20
-14 -170 -16 -1407 -16 -1274 0 -1386 1 -1403 17 -17 15 -18 54 -18 829 l0
813 22 15 c20 14 175 16 1402 15 1199 0 1384 -2 1404 -15z"/>
<path id="in_screen_slash" d="M4390 6494 c-26 -8 -39 -37 -150 -358 -59 -171 -135 -390 -169 -486
-34 -96 -61 -185 -61 -198 0 -12 11 -34 25 -47 31 -32 93 -34 119 -6 22 24
356 981 356 1019 0 49 -68 91 -120 76z"/>
<path id="in_screen_less_than" d="M3815 6370 c-11 -5 -111 -98 -222 -207 -185 -181 -203 -202 -203
-233 0 -31 19 -53 202 -237 179 -180 206 -203 234 -203 18 0 40 3 49 6 17 7
45 54 45 78 0 8 -75 89 -167 180 l-168 165 162 163 c89 90 166 174 171 188 13
34 -3 73 -37 93 -32 19 -37 19 -66 7z"/>
<path id="in_screen_greater_than" d="M4639 6351 c-54 -54 -47 -66 138 -253 l167 -168 -167 -169 c-186
-188 -194 -202 -138 -255 53 -51 66 -44 300 186 177 174 211 212 211 236 0 23
-30 58 -180 206 -272 269 -276 271 -331 217z"/>
<path id="ic_buttom_screen" d="M3936 4583 c-5 -19 -13 -57 -22 -108 -3 -16 -12 -60 -20 -98 -8 -37
-14 -70 -14 -73 0 -2 -51 -4 -112 -4 -275 -1 -557 -69 -723 -175 -135 -87
-200 -183 -200 -297 0 -58 4 -72 30 -110 65 -92 187 -156 385 -202 142 -33
242 -44 514 -56 489 -22 616 -39 712 -95 98 -57 127 -147 82 -247 -27 -58
-119 -163 -187 -213 -22 -16 -41 -34 -41 -39 0 -11 553 -1 735 14 503 40 841
131 985 266 62 58 80 97 80 172 0 71 -21 125 -78 201 -104 137 -277 227 -541
281 -179 36 -354 43 -962 36 -594 -7 -736 -1 -794 33 -62 36 -55 108 15 155
120 80 390 116 863 116 242 0 267 3 294 39 19 24 15 76 -6 102 -19 23 -23 24
-182 24 l-162 0 -32 145 -32 145 -291 3 c-270 2 -291 1 -296 -15z"/>
<path id="txt_d" d="M6310 4908 l0 -559 203 3 c181 3 208 6 258 26 106 42 185 145 209
272 15 82 13 484 -4 546 -35 134 -117 219 -241 253 -22 6 -127 12 -233 15
l-192 4 0 -560z m387 339 c18 -12 43 -42 55 -67 21 -42 23 -57 23 -265 0 -236
-5 -270 -51 -325 -28 -32 -63 -45 -146 -55 l-58 -6 0 374 0 374 72 -4 c54 -3
81 -9 105 -26z"/>
<path id="txt_e1" d="M7120 4910 l0 -560 269 0 270 0 3 91 c2 65 -1 93 -9 96 -7 3 -82 3
-168 1 l-155 -3 0 143 0 142 140 0 140 0 0 95 0 95 -140 0 -140 0 0 130 0 130
165 0 165 0 0 99 0 99 -270 0 -270 1 0 -559z"/>
<path id="txt_v1" d="M7760 5461 c0 -9 69 -316 136 -601 30 -129 69 -297 86 -372 l31 -138
123 0 123 0 10 38 c6 20 37 159 71 307 33 149 86 378 116 510 31 132 57 244
58 248 1 7 -212 12 -219 5 -4 -4 -122 -644 -136 -738 -14 -91 -20 -102 -31
-55 -5 22 -40 208 -79 414 -38 206 -71 377 -74 379 -7 7 -215 9 -215 3z"/>
<path id="txt_s" d="M8827 5469 c-78 -11 -153 -54 -193 -109 -40 -55 -54 -107 -54 -198 0
-57 5 -79 31 -130 37 -74 80 -113 221 -198 115 -70 162 -116 173 -171 19 -102
-78 -181 -170 -137 -41 19 -74 76 -75 128 l0 29 -62 -7 c-35 -4 -83 -9 -107
-13 l-44 -6 6 -56 c9 -102 78 -201 163 -237 18 -7 64 -19 104 -25 132 -20 273
24 334 104 53 69 76 187 56 283 -26 122 -90 188 -298 299 -29 16 -69 46 -88
67 -28 32 -34 46 -34 84 0 80 39 124 111 124 47 0 95 -53 104 -114 7 -47 8
-48 39 -41 17 3 62 9 99 12 37 3 70 10 73 15 7 12 -15 117 -33 151 -59 115
-195 170 -356 146z"/>
<path id="txt_r1" d="M9347 5463 c-4 -3 -7 -255 -7 -560 l0 -553 105 0 105 0 0 210 0 210
39 0 38 0 48 -127 c27 -71 63 -164 80 -208 l31 -80 112 -3 c68 -2 112 1 112 7
0 5 -40 109 -88 230 -49 122 -85 221 -82 221 17 0 103 86 120 120 44 87 47
253 5 353 -36 87 -136 161 -231 171 -84 10 -380 16 -387 9z m371 -210 c47 -34
63 -79 60 -160 -3 -60 -7 -76 -28 -99 -35 -37 -80 -54 -145 -54 l-55 0 0 171
0 172 71 -5 c48 -4 79 -12 97 -25z"/>
<path id="txt_i" d="M10130 4908 l0 -558 105 0 105 0 -2 557 -3 556 -102 1 -103 1 0 -557z"/>
<path id="txt_v2" d="M10435 5462 c-4 -4 20 -109 139 -611 57 -240 107 -451 111 -468 l7
-33 122 0 123 0 16 73 c16 71 77 338 177 782 29 127 53 236 54 244 2 19 -218
19 -221 -1 -3 -17 -122 -672 -138 -758 -9 -52 -13 -60 -18 -40 -9 32 -97 502
-128 678 -21 118 -26 132 -44 133 -101 3 -197 3 -200 1z"/>
<path id="txt_e2" d="M11300 5466 c0 0 -2 -252 -3 -559 l-2 -557 278 0 277 0 0 95 0 96
-172 -1 -173 -2 0 139 0 138 143 3 142 3 0 94 0 95 -145 0 -145 0 0 130 0 130
175 0 175 0 0 98 0 97 -275 1 c-151 1 -275 1 -275 0z"/>
<path id="txt_r2" d="M11988 5464 c-17 -5 -18 -41 -18 -560 l0 -554 105 0 105 0 0 209 0
209 36 4 c25 3 38 0 43 -11 4 -9 41 -105 82 -213 l74 -198 113 0 c113 0 113 0
106 23 -3 12 -43 116 -89 230 l-82 208 28 14 c44 23 98 95 115 153 21 70 20
222 -1 281 -34 99 -95 158 -188 186 -49 15 -393 30 -429 19z m354 -204 c43
-20 61 -57 66 -136 8 -126 -30 -170 -159 -181 l-69 -6 0 173 0 173 68 -5 c37
-3 79 -11 94 -18z"/>
<path id="txt_a" d="M12995 5460 c-2 -3 -37 -140 -79 -305 -41 -165 -104 -414 -140 -552
l-64 -253 107 0 107 0 25 103 25 102 129 0 130 0 24 -102 24 -103 112 0 113 0
-67 263 c-37 144 -101 393 -141 554 l-72 292 -115 3 c-63 2 -116 1 -118 -2z
m129 -354 c4 -24 22 -113 41 -197 19 -85 35 -160 35 -166 0 -10 -26 -13 -96
-13 -86 0 -95 2 -90 18 7 25 74 331 82 374 8 48 20 41 28 -16z"/>
</g>
</svg>
